<?xml version="1.0" encoding="UTF-8"?>
<svg id="Layer_2" data-name="Layer 2" xmlns="http://www.w3.org/2000/svg" viewBox="0 0 439.27 75.77">
  <defs>
    <style>
      .cls-1 {
        fill: #222;
        stroke-width: 0px;
      }
    </style>
  </defs>
  <g id="Layer_1-2" data-name="Layer 1">
    <g>
      <rect class="cls-1" x="94.44" y=".02" width="1.05" height="75.75"/>
      <g>
        <path class="cls-1" d="M350.34,43.5h-4.63c-.21,0-.4-.14-.46-.34l-7.65-23.85c-.1-.31.13-.63.46-.63h4.63c.21,0,.4.14.46.34l7.65,23.85c.1.31-.13.63-.46.63Z"/>
        <path class="cls-1" d="M362.3,43.5h-4.63c-.21,0-.4-.14-.46-.34l-7.65-23.85c-.1-.31.13-.63.46-.63h4.63c.21,0,.4.14.46.34l7.65,23.85c.1.31-.13.63-.46.63Z"/>
        <path class="cls-1" d="M366.71,19.02c-.06-.2-.25-.34-.46-.34h-4.63c-.33,0-.56.32-.46.63l4.28,13.37c.14.45.78.45.92,0l2.27-7.07c.06-.19.06-.4,0-.59l-1.92-6Z"/>
        <path class="cls-1" d="M294.12,43.5h-14.78c-.33,0-.66-.27-.66-.65V7.06c0-.38.33-.71.66-.71h11.73c2.89,0,6,.38,8.56,2.18,2.24,1.53,3.82,3.93,3.82,7.26,0,3.98-1.85,6.71-4.85,8.07v.22c5.29,1.04,7.91,4.53,7.91,9.44,0,6.93-6.16,9.98-12.38,9.98ZM294.99,12.35c-1.09-.71-2.45-1.04-3.87-1.04h-6.33v10.86h5.78c1.42,0,2.95-.11,4.15-.71,1.47-.76,2.56-2.29,2.56-4.69,0-2.13-.93-3.55-2.29-4.42ZM297.34,27.95c-1.31-.71-3.05-.87-5.84-.87h-6.71v11.46h8.02c1.53,0,2.95-.16,4.15-.65,1.96-.82,3.33-2.4,3.33-5.13,0-2.02-.93-3.82-2.95-4.8Z"/>
        <path class="cls-1" d="M313.65,21.79c2.4-2.24,5.73-3.6,9.44-3.6s7.04,1.36,9.44,3.6c2.4,2.29,3.82,5.51,3.82,9.33s-1.36,7.15-3.82,9.38c-2.34,2.24-5.78,3.55-9.44,3.55s-7.09-1.31-9.44-3.55c-2.45-2.24-3.87-5.51-3.87-9.38s1.47-7.04,3.87-9.33ZM317.47,36.95c1.36,1.47,3.33,2.4,5.62,2.4s4.2-.93,5.56-2.4c1.36-1.53,2.18-3.49,2.18-5.84s-.82-4.31-2.18-5.84c-1.36-1.47-3.33-2.4-5.56-2.4s-4.25.93-5.62,2.4c-1.36,1.53-2.13,3.49-2.13,5.84s.76,4.31,2.13,5.84Z"/>
        <path class="cls-1" d="M392.27,37.66c.49-.27.82-.11.98.16l1.47,2.73c.22.33.06.65-.27.87-2.02,1.42-5.62,2.62-9.38,2.62-4.15,0-7.53-1.36-9.82-3.82-2.18-2.29-3.44-5.56-3.44-9.44,0-3.6,1.31-6.76,3.49-9.06,2.07-2.18,5.13-3.49,9.06-3.49,4.25,0,7.42,1.58,9.33,4.09,1.8,2.35,2.56,5.78,2.35,9.55-.06.44-.33.76-.76.76h-17.57c.16,1.96.82,3.44,1.85,4.58,1.36,1.58,3.44,2.4,5.89,2.4,2.67,0,4.91-.82,6.82-1.96ZM390.64,28.88c-.11-1.75-.6-3.11-1.64-4.25-1.04-1.15-2.62-1.91-4.69-1.91s-3.87.76-4.96,2.02c-.93,1.09-1.53,2.56-1.64,4.15h12.93Z"/>
        <path class="cls-1" d="M406.31,31.5v11.35c0,.38-.27.65-.65.65h-4.25c-.38,0-.71-.27-.71-.65v-23.51c0-.33.33-.65.71-.65h4.04c.38,0,.71.33.71.65v2.4h.16c1.53-2.29,3.65-3.49,6.49-3.49,2.34,0,4.42.71,6,2.02.33.27.44.65.27.93l-1.58,3.27c-.16.33-.55.44-.98.16-1.42-.87-2.78-1.42-4.58-1.42-4.25,0-5.62,4.42-5.62,8.29Z"/>
        <path class="cls-1" d="M433.49,36.9c0-1.64-1.31-2.35-2.95-3.11-1.53-.71-3.76-1.31-5.62-2.18-2.67-1.25-4.09-3.27-4.09-6.38,0-4.36,3.38-7.04,9.44-7.04,3.65,0,6.11.87,7.91,1.85.44.22.49.55.33.87l-1.53,3.11c-.22.38-.49.44-.87.22-1.8-.98-3.71-1.47-5.51-1.47-2.35,0-3.98.71-3.98,2.35,0,1.42,1.2,2.13,2.67,2.78,1.69.71,3.82,1.36,5.51,2.18,3.22,1.58,4.47,3.49,4.47,6.33,0,4.53-3.76,7.64-9.82,7.64-4.2,0-6.93-1.04-8.67-2.18-.33-.22-.44-.49-.27-.82l1.53-3.11c.16-.38.49-.49.87-.27,1.96,1.25,4.09,2.02,6.27,2.02,2.51,0,4.31-.87,4.31-2.78Z"/>
        <g>
          <path class="cls-1" d="M113.72,24.9c0-10.64,8.73-19.04,19.64-19.04,5.24,0,8.73,1.36,11.29,2.78.44.22.55.6.33.93l-1.91,3.98c-.16.44-.55.44-.87.27-2.29-1.2-5.02-2.45-9-2.45-7.09,0-13.15,6-13.15,13.53,0,8.07,5.95,13.64,13.2,13.64,3.93,0,6.87-1.2,9.16-2.51.38-.22.65-.16.87.22l1.91,4.09c.16.38.11.65-.33.87-2.84,1.53-6.33,2.84-11.67,2.84-11.51,0-19.47-7.47-19.47-19.15Z"/>
          <path class="cls-1" d="M150.97,21.79c2.4-2.24,5.73-3.6,9.44-3.6s7.04,1.36,9.44,3.6c2.4,2.29,3.82,5.51,3.82,9.33s-1.36,7.15-3.82,9.38c-2.34,2.24-5.78,3.55-9.44,3.55s-7.09-1.31-9.44-3.55c-2.46-2.24-3.87-5.51-3.87-9.38s1.47-7.04,3.87-9.33ZM154.79,36.95c1.36,1.47,3.33,2.4,5.62,2.4s4.2-.93,5.56-2.4c1.36-1.53,2.18-3.49,2.18-5.84s-.82-4.31-2.18-5.84c-1.36-1.47-3.33-2.4-5.56-2.4s-4.25.93-5.62,2.4c-1.36,1.53-2.13,3.49-2.13,5.84s.76,4.31,2.13,5.84Z"/>
          <path class="cls-1" d="M183.3,31.5v11.35c0,.38-.27.65-.65.65h-4.25c-.38,0-.71-.27-.71-.65v-23.51c0-.33.33-.65.71-.65h4.04c.38,0,.71.33.71.65v2.4h.16c1.53-2.29,3.65-3.49,6.49-3.49,2.34,0,4.42.71,6,2.02.33.27.44.65.27.93l-1.58,3.27c-.16.33-.55.44-.98.16-1.42-.87-2.78-1.42-4.58-1.42-4.25,0-5.62,4.42-5.62,8.29Z"/>
          <path class="cls-1" d="M222.63,42.85c0,.38-.27.65-.65.65h-4.31c-.38,0-.65-.27-.65-.65v-12.87c0-2.24-.33-4.25-1.58-5.56-.87-.87-2.13-1.42-3.98-1.42-2.51,0-4.47,1.15-5.67,3.27-.93,1.69-1.31,3.76-1.31,5.78v10.8c0,.38-.27.65-.65.65h-4.25c-.38,0-.71-.27-.71-.65v-23.51c0-.33.33-.65.71-.65h4.04c.38,0,.71.33.71.65v2.67h.16c1.8-2.51,4.64-3.82,8.07-3.82,2.84,0,5.4.71,7.2,2.35,1.85,1.64,2.89,4.31,2.89,8.07v14.24Z"/>
          <path class="cls-1" d="M246.95,37.66c.49-.27.82-.11.98.16l1.47,2.73c.22.33.06.65-.27.87-2.02,1.42-5.62,2.62-9.38,2.62-4.15,0-7.53-1.36-9.82-3.82-2.18-2.29-3.44-5.56-3.44-9.44,0-3.6,1.31-6.76,3.49-9.06,2.07-2.18,5.13-3.49,9.06-3.49,4.25,0,7.42,1.58,9.33,4.09,1.8,2.35,2.56,5.78,2.35,9.55-.06.44-.33.76-.76.76h-17.57c.16,1.96.82,3.44,1.85,4.58,1.36,1.58,3.44,2.4,5.89,2.4,2.67,0,4.91-.82,6.82-1.96ZM245.31,28.88c-.11-1.75-.6-3.11-1.64-4.25-1.04-1.15-2.62-1.91-4.69-1.91s-3.87.76-4.96,2.02c-.93,1.09-1.53,2.56-1.64,4.15h12.93Z"/>
          <path class="cls-1" d="M256.08,6.35h4.25c.38,0,.65.33.65.71v35.78c0,.38-.27.65-.65.65h-4.25c-.38,0-.71-.27-.71-.65V7.06c0-.38.33-.71.71-.71Z"/>
          <path class="cls-1" d="M267.76,6.35h4.25c.38,0,.65.33.65.71v35.78c0,.38-.27.65-.65.65h-4.25c-.38,0-.71-.27-.71-.65V7.06c0-.38.33-.71.71-.71Z"/>
        </g>
      </g>
      <g>
        <path class="cls-1" d="M115.49,61.79c0-3.29,2.74-5.98,6.1-5.98,1.66,0,2.76.46,3.56.93.12.07.15.15.1.26l-.41.86c-.05.12-.15.1-.24.05-.7-.39-1.64-.86-3.05-.86-2.52,0-4.64,2.16-4.64,4.75,0,2.84,2.14,4.78,4.66,4.78,1.39,0,2.38-.45,3.08-.87.1-.07.17-.05.24.05l.41.89c.03.09.02.15-.09.22-.87.5-1.97.94-3.67.94-3.46,0-6.06-2.36-6.06-6.01Z"/>
        <path class="cls-1" d="M127.56,60.92c.74-.74,1.78-1.16,2.95-1.16s2.21.43,2.95,1.16c.72.7,1.15,1.7,1.15,2.86s-.43,2.16-1.15,2.86c-.74.74-1.78,1.16-2.95,1.16s-2.21-.43-2.95-1.16c-.72-.7-1.15-1.7-1.15-2.86s.43-2.16,1.15-2.86ZM128.42,65.87c.5.57,1.23.91,2.09.91s1.59-.34,2.09-.91c.5-.53.77-1.27.77-2.09s-.27-1.56-.77-2.09c-.5-.57-1.23-.91-2.09-.91s-1.59.34-2.09.91c-.5.53-.77,1.27-.77,2.09s.27,1.56.77,2.09Z"/>
        <path class="cls-1" d="M136.69,55.97h.93c.09,0,.15.09.15.17v11.34c0,.09-.07.15-.15.15h-.93c-.09,0-.17-.07-.17-.15v-11.34c0-.09.09-.17.17-.17Z"/>
        <path class="cls-1" d="M140.31,55.97h.93c.09,0,.15.09.15.17v11.34c0,.09-.07.15-.15.15h-.93c-.09,0-.17-.07-.17-.15v-11.34c0-.09.09-.17.17-.17Z"/>
        <path class="cls-1" d="M149.82,66.09c.14-.09.22-.03.26.03l.33.63c.05.09.02.15-.07.22-.63.43-1.75.82-2.95.82-1.28,0-2.35-.45-3.05-1.25-.65-.72-1.01-1.71-1.01-2.88,0-1.1.38-2.09,1.03-2.79s1.59-1.13,2.83-1.13,2.21.5,2.81,1.23c.57.72.87,1.73.81,2.95,0,.12-.09.19-.21.19h-5.96c.05.65.27,1.25.67,1.71.5.6,1.25.94,2.19.94s1.7-.31,2.33-.69ZM149.59,63.21c-.03-.7-.26-1.28-.63-1.71-.39-.43-1.01-.74-1.78-.74-.86,0-1.51.31-1.94.81-.36.43-.58,1.03-.62,1.64h4.97Z"/>
        <path class="cls-1" d="M157.52,69.93c.39-.45.58-1.08.58-1.92v-.99c-.7.58-1.44.77-2.31.77-1.1,0-1.92-.41-2.5-1.06-.67-.75-1.01-1.82-1.01-2.96s.31-2.18.98-2.95c.58-.65,1.42-1.06,2.52-1.06s1.82.41,2.31.81h.05v-.5c0-.09.07-.17.15-.17h.89c.1,0,.17.09.17.17v7.81c0,1.23-.31,2.19-.98,2.84-.6.6-1.51.89-2.67.89s-2.14-.36-2.83-.82c-.09-.05-.12-.12-.07-.21l.34-.69c.05-.09.14-.12.26-.03.63.43,1.39.74,2.31.74.82,0,1.42-.24,1.8-.67ZM158.1,65.92v-4.25c-.45-.36-1.1-.89-2.18-.89-.75,0-1.34.31-1.71.79-.46.57-.67,1.35-.67,2.18,0,.87.21,1.68.65,2.23.39.48.94.77,1.71.77.91,0,1.61-.33,2.19-.82Z"/>
        <path class="cls-1" d="M167.8,66.09c.14-.09.22-.03.26.03l.33.63c.05.09.02.15-.07.22-.63.43-1.75.82-2.95.82-1.28,0-2.35-.45-3.05-1.25-.65-.72-1.01-1.71-1.01-2.88,0-1.1.38-2.09,1.03-2.79s1.59-1.13,2.83-1.13,2.21.5,2.81,1.23c.57.72.87,1.73.81,2.95,0,.12-.09.19-.21.19h-5.96c.05.65.27,1.25.67,1.71.5.6,1.25.94,2.19.94s1.7-.31,2.33-.69ZM167.58,63.21c-.03-.7-.26-1.28-.63-1.71-.39-.43-1.01-.74-1.78-.74-.86,0-1.51.31-1.94.81-.36.43-.58,1.03-.62,1.64h4.97Z"/>
        <path class="cls-1" d="M175.78,60.92c.74-.74,1.78-1.16,2.95-1.16s2.21.43,2.95,1.16c.72.7,1.15,1.7,1.15,2.86s-.43,2.16-1.15,2.86c-.74.74-1.78,1.16-2.95,1.16s-2.21-.43-2.95-1.16c-.72-.7-1.15-1.7-1.15-2.86s.43-2.16,1.15-2.86ZM176.64,65.87c.5.57,1.23.91,2.09.91s1.59-.34,2.09-.91c.5-.53.77-1.27.77-2.09s-.27-1.56-.77-2.09c-.5-.57-1.23-.91-2.09-.91s-1.59.34-2.09.91c-.5.53-.77,1.27-.77,2.09s.27,1.56.77,2.09Z"/>
        <path class="cls-1" d="M186.58,57.3c-.27.33-.36.84-.36,1.49v1.1h2.31c.09,0,.15.09.15.17v.67c0,.09-.07.15-.15.15h-2.31v6.6c0,.09-.07.15-.17.15h-.93c-.09,0-.15-.07-.15-.15v-6.6h-.99c-.09,0-.17-.07-.17-.15v-.67c0-.09.09-.17.17-.17h.99v-1.22c0-.89.17-1.71.69-2.24.38-.38.93-.6,1.68-.6.94,0,1.76.31,2.3.72.09.05.1.15.07.22l-.31.63c-.05.1-.17.12-.27.05-.48-.38-.98-.57-1.52-.57-.46,0-.79.14-1.01.41Z"/>
        <path class="cls-1" d="M194.3,61.79c0-3.29,2.74-5.98,6.1-5.98,1.66,0,2.76.46,3.56.93.12.07.15.15.1.26l-.41.86c-.05.12-.15.1-.24.05-.7-.39-1.64-.86-3.05-.86-2.52,0-4.64,2.16-4.64,4.75,0,2.84,2.14,4.78,4.66,4.78,1.39,0,2.38-.45,3.08-.87.1-.07.17-.05.24.05l.41.89c.03.09.02.15-.09.22-.87.5-1.97.94-3.67.94-3.46,0-6.06-2.36-6.06-6.01Z"/>
        <path class="cls-1" d="M206.37,60.92c.74-.74,1.78-1.16,2.95-1.16s2.21.43,2.95,1.16c.72.7,1.15,1.7,1.15,2.86s-.43,2.16-1.15,2.86c-.74.74-1.78,1.16-2.95,1.16s-2.21-.43-2.95-1.16c-.72-.7-1.15-1.7-1.15-2.86s.43-2.16,1.15-2.86ZM207.23,65.87c.5.57,1.23.91,2.09.91s1.59-.34,2.09-.91c.5-.53.77-1.27.77-2.09s-.27-1.56-.77-2.09c-.5-.57-1.23-.91-2.09-.91s-1.59.34-2.09.91c-.5.53-.77,1.27-.77,2.09s.27,1.56.77,2.09Z"/>
        <path class="cls-1" d="M216.6,60.82c.51-.69,1.28-1.06,2.26-1.06.65,0,1.27.15,1.75.51.38.27.65.63.82,1.1.19-.41.5-.86,1.03-1.2.46-.29,1.03-.41,1.59-.41.81,0,1.56.21,2.11.75.5.48.82,1.23.82,2.36v4.61c0,.09-.07.15-.15.15h-.94c-.09,0-.17-.07-.17-.15v-4.3c0-.79-.17-1.42-.51-1.8-.33-.36-.81-.53-1.4-.53-.63,0-1.2.24-1.56.82-.33.55-.45,1.25-.45,2.12v3.68c0,.09-.07.15-.15.15h-.94c-.09,0-.17-.07-.17-.15v-4.3c0-.79-.17-1.42-.51-1.8-.33-.36-.81-.53-1.4-.53-.63,0-1.2.24-1.56.82-.27.46-.45,1.15-.45,1.95v3.85c0,.09-.07.15-.15.15h-.94c-.09,0-.17-.07-.17-.15v-7.42c0-.09.09-.17.17-.17h.87c.09,0,.17.09.17.17v.75h.05Z"/>
        <path class="cls-1" d="M231.79,59.75c1.34,0,2.5.36,3.32,1.11.72.67,1.18,1.64,1.18,2.9s-.38,2.19-.98,2.83c-.79.87-1.95,1.22-2.95,1.22-.74,0-1.25-.09-1.82-.34v3.97c0,.09-.07.15-.15.15h-.93c-.09,0-.17-.07-.17-.15v-11.25c0-.1.05-.19.19-.22.62-.12,1.47-.21,2.3-.21ZM230.55,66.42c.51.26.98.36,1.7.36.65,0,1.44-.21,2.02-.79.48-.46.77-1.22.77-2.23,0-.93-.29-1.64-.82-2.16-.57-.55-1.37-.84-2.31-.84-.45,0-.94.05-1.35.1v5.55Z"/>
        <path class="cls-1" d="M238.12,60.06c0-.09.07-.17.15-.17h.93c.1,0,.17.09.17.17v4.18c0,.69.09,1.1.31,1.51.33.55.98.94,2,.94s1.7-.38,1.99-.93c.24-.41.31-.84.31-1.52v-4.18c0-.09.09-.17.17-.17h.93c.09,0,.15.09.15.17v4.3c0,.99-.17,1.61-.57,2.19-.55.81-1.59,1.25-2.98,1.25s-2.45-.45-3-1.25c-.39-.58-.57-1.2-.57-2.19v-4.3Z"/>
        <path class="cls-1" d="M249.04,64.91c0,.53.07.96.26,1.25.22.38.6.57,1.22.57.46,0,.91-.12,1.4-.48.12-.09.21-.07.26.02l.31.67c.05.09.02.15-.07.22-.6.43-1.39.65-2.21.65-.93,0-1.52-.29-1.9-.75-.39-.5-.53-1.22-.53-1.99v-4.18h-.91c-.09,0-.17-.07-.17-.15v-.67c0-.09.09-.17.17-.17h.91v-1.49c0-.09.09-.17.17-.17h.93c.09,0,.17.09.17.17v1.49h2.69c.09,0,.17.09.17.17v.67c0,.09-.09.15-.17.15h-2.69v4.03Z"/>
        <path class="cls-1" d="M253.65,56.21c0-.41.34-.74.75-.74s.75.33.75.74-.34.75-.75.75-.75-.33-.75-.75ZM253.96,59.89h.93c.09,0,.15.09.15.17v7.42c0,.09-.07.15-.15.15h-.93c-.09,0-.17-.07-.17-.15v-7.42c0-.09.09-.17.17-.17Z"/>
        <path class="cls-1" d="M258.68,61.21c.53-1.01,1.56-1.46,2.71-1.46.93,0,1.7.22,2.24.7.6.53.93,1.39.93,2.59v4.44c0,.09-.09.15-.17.15h-.91c-.09,0-.17-.07-.17-.15v-4.16c0-.86-.17-1.54-.63-1.97-.34-.33-.82-.5-1.52-.5-.89,0-1.59.39-2.02,1.18-.33.62-.45,1.35-.45,2.04v3.41c0,.09-.07.15-.15.15h-.94c-.09,0-.17-.07-.17-.15v-7.42c0-.09.09-.17.17-.17h.87c.09,0,.17.09.17.17v1.15h.05Z"/>
        <path class="cls-1" d="M271.67,69.93c.39-.45.58-1.08.58-1.92v-.99c-.7.58-1.44.77-2.31.77-1.1,0-1.92-.41-2.5-1.06-.67-.75-1.01-1.82-1.01-2.96s.31-2.18.98-2.95c.58-.65,1.42-1.06,2.52-1.06s1.82.41,2.31.81h.05v-.5c0-.09.07-.17.15-.17h.89c.1,0,.17.09.17.17v7.81c0,1.23-.31,2.19-.98,2.84-.6.6-1.51.89-2.67.89s-2.14-.36-2.83-.82c-.09-.05-.12-.12-.07-.21l.34-.69c.05-.09.14-.12.26-.03.63.43,1.39.74,2.31.74.82,0,1.42-.24,1.8-.67ZM272.25,65.92v-4.25c-.45-.36-1.1-.89-2.18-.89-.75,0-1.34.31-1.71.79-.46.57-.67,1.35-.67,2.18,0,.87.21,1.68.65,2.23.39.48.94.77,1.71.77.91,0,1.61-.33,2.19-.82Z"/>
        <path class="cls-1" d="M284.47,61h3.39c.09,0,.15.07.15.15v.86c0,.09-.07.17-.15.17h-3.39v3.37c0,.09-.07.17-.15.17h-.86c-.09,0-.17-.09-.17-.17v-3.37h-3.37c-.09,0-.15-.09-.15-.17v-.86c0-.09.07-.15.15-.15h3.37v-3.37c0-.09.09-.17.17-.17h.86c.09,0,.15.09.15.17v3.37Z"/>
        <path class="cls-1" d="M295.51,55.97c.09,0,.17.09.17.17v11.34c0,.09-.09.15-.17.15h-1.04c-.09,0-.15-.07-.15-.15v-11.34c0-.09.07-.17.15-.17h1.04Z"/>
        <path class="cls-1" d="M299.51,61.21c.53-1.01,1.56-1.46,2.71-1.46.93,0,1.7.22,2.24.7.6.53.93,1.39.93,2.59v4.44c0,.09-.09.15-.17.15h-.91c-.09,0-.17-.07-.17-.15v-4.16c0-.86-.17-1.54-.63-1.97-.34-.33-.82-.5-1.52-.5-.89,0-1.59.39-2.02,1.18-.33.62-.45,1.35-.45,2.04v3.41c0,.09-.07.15-.15.15h-.94c-.09,0-.17-.07-.17-.15v-7.42c0-.09.09-.17.17-.17h.87c.09,0,.17.09.17.17v1.15h.05Z"/>
        <path class="cls-1" d="M309.55,57.3c-.27.33-.36.84-.36,1.49v1.1h2.31c.09,0,.15.09.15.17v.67c0,.09-.07.15-.15.15h-2.31v6.6c0,.09-.07.15-.17.15h-.93c-.09,0-.15-.07-.15-.15v-6.6h-.99c-.09,0-.17-.07-.17-.15v-.67c0-.09.09-.17.17-.17h.99v-1.22c0-.89.17-1.71.69-2.24.38-.38.93-.6,1.68-.6.94,0,1.76.31,2.3.72.09.05.1.15.07.22l-.31.63c-.05.1-.17.12-.27.05-.48-.38-.98-.57-1.52-.57-.46,0-.79.14-1.01.41Z"/>
        <path class="cls-1" d="M313.67,60.92c.74-.74,1.78-1.16,2.95-1.16s2.21.43,2.95,1.16c.72.7,1.15,1.7,1.15,2.86s-.43,2.16-1.15,2.86c-.74.74-1.78,1.16-2.95,1.16s-2.21-.43-2.95-1.16c-.72-.7-1.15-1.7-1.15-2.86s.43-2.16,1.15-2.86ZM314.53,65.87c.5.57,1.23.91,2.09.91s1.59-.34,2.09-.91c.5-.53.77-1.27.77-2.09s-.27-1.56-.77-2.09c-.5-.57-1.23-.91-2.09-.91s-1.59.34-2.09.91c-.5.53-.77,1.27-.77,2.09s.27,1.56.77,2.09Z"/>
        <path class="cls-1" d="M324.48,61.59c-.43.58-.58,1.51-.58,2.26v3.63c0,.09-.07.15-.15.15h-.94c-.09,0-.17-.07-.17-.15v-7.42c0-.09.09-.17.17-.17h.87c.09,0,.17.09.17.17v.94h.05c.39-.82,1.15-1.25,2.18-1.25.75,0,1.35.22,1.85.62.09.07.1.14.05.22l-.38.77c-.05.09-.15.1-.26.03-.41-.29-.87-.5-1.47-.5-.57,0-1.04.22-1.39.69Z"/>
        <path class="cls-1" d="M330.54,60.82c.51-.69,1.28-1.06,2.26-1.06.65,0,1.27.15,1.75.51.38.27.65.63.82,1.1.19-.41.5-.86,1.03-1.2.46-.29,1.03-.41,1.59-.41.81,0,1.56.21,2.11.75.5.48.82,1.23.82,2.36v4.61c0,.09-.07.15-.15.15h-.94c-.09,0-.17-.07-.17-.15v-4.3c0-.79-.17-1.42-.51-1.8-.33-.36-.81-.53-1.4-.53-.63,0-1.2.24-1.56.82-.33.55-.45,1.25-.45,2.12v3.68c0,.09-.07.15-.15.15h-.94c-.09,0-.17-.07-.17-.15v-4.3c0-.79-.17-1.42-.51-1.8-.33-.36-.81-.53-1.4-.53-.63,0-1.2.24-1.56.82-.27.46-.45,1.15-.45,1.95v3.85c0,.09-.07.15-.15.15h-.94c-.09,0-.17-.07-.17-.15v-7.42c0-.09.09-.17.17-.17h.87c.09,0,.17.09.17.17v.75h.05Z"/>
        <path class="cls-1" d="M343.6,61.47c-.12.07-.21.03-.24-.05l-.29-.63c-.05-.1-.03-.15.09-.22.79-.53,1.88-.81,2.95-.81.74,0,1.64.14,2.26.84.39.45.63,1.1.63,2.09v4.8c0,.09-.07.15-.15.15h-.81c-.09,0-.15-.07-.15-.15v-.27h-.07c-.79.46-1.47.6-2.33.6-.7,0-1.39-.17-1.92-.55-.51-.38-.87-.94-.87-1.73,0-1.06.65-1.66,1.59-2.02,1.04-.39,2.43-.5,3.46-.55v-.26c0-.69-.12-1.1-.39-1.42-.34-.39-.89-.51-1.4-.51-.98,0-1.7.33-2.35.7ZM347.75,66.31v-2.42c-.81.03-1.76.09-2.55.31-.74.19-1.3.57-1.3,1.25,0,.96.99,1.35,1.95,1.35.65,0,1.3-.19,1.9-.5Z"/>
        <path class="cls-1" d="M352.67,64.91c0,.53.07.96.26,1.25.22.38.6.57,1.22.57.46,0,.91-.12,1.4-.48.12-.09.21-.07.26.02l.31.67c.05.09.02.15-.07.22-.6.43-1.39.65-2.21.65-.93,0-1.52-.29-1.9-.75-.39-.5-.53-1.22-.53-1.99v-4.18h-.91c-.09,0-.17-.07-.17-.15v-.67c0-.09.09-.17.17-.17h.91v-1.49c0-.09.09-.17.17-.17h.93c.09,0,.17.09.17.17v1.49h2.69c.09,0,.17.09.17.17v.67c0,.09-.09.15-.17.15h-2.69v4.03Z"/>
        <path class="cls-1" d="M357.29,56.21c0-.41.34-.74.75-.74s.75.33.75.74-.34.75-.75.75-.75-.33-.75-.75ZM357.6,59.89h.93c.09,0,.15.09.15.17v7.42c0,.09-.07.15-.15.15h-.93c-.09,0-.17-.07-.17-.15v-7.42c0-.09.09-.17.17-.17Z"/>
        <path class="cls-1" d="M361.71,60.92c.74-.74,1.78-1.16,2.95-1.16s2.21.43,2.95,1.16c.72.7,1.15,1.7,1.15,2.86s-.43,2.16-1.15,2.86c-.74.74-1.78,1.16-2.95,1.16s-2.21-.43-2.95-1.16c-.72-.7-1.15-1.7-1.15-2.86s.43-2.16,1.15-2.86ZM362.57,65.87c.5.57,1.23.91,2.09.91s1.59-.34,2.09-.91c.5-.53.77-1.27.77-2.09s-.27-1.56-.77-2.09c-.5-.57-1.23-.91-2.09-.91s-1.59.34-2.09.91c-.5.53-.77,1.27-.77,2.09s.27,1.56.77,2.09Z"/>
        <path class="cls-1" d="M371.94,61.21c.53-1.01,1.56-1.46,2.71-1.46.93,0,1.7.22,2.24.7.6.53.93,1.39.93,2.59v4.44c0,.09-.09.15-.17.15h-.91c-.09,0-.17-.07-.17-.15v-4.16c0-.86-.17-1.54-.63-1.97-.34-.33-.82-.5-1.52-.5-.89,0-1.59.39-2.02,1.18-.33.62-.45,1.35-.45,2.04v3.41c0,.09-.07.15-.15.15h-.94c-.09,0-.17-.07-.17-.15v-7.42c0-.09.09-.17.17-.17h.87c.09,0,.17.09.17.17v1.15h.05Z"/>
        <path class="cls-1" d="M384.07,66.69c-.1-.05-.14-.14-.09-.24l.43-.87c.03-.09.1-.12.22-.05.72.46,1.78,1.11,3.34,1.11.82,0,1.47-.21,1.92-.53.51-.39.77-.98.77-1.64,0-.89-.63-1.42-1.49-1.78-1.01-.45-2.16-.6-3.37-1.2-1.01-.5-1.75-1.23-1.75-2.54,0-.93.34-1.7,1.01-2.24.7-.57,1.75-.89,3.13-.89s2.6.38,3.39.82c.1.07.12.14.07.24l-.41.86c-.05.1-.14.14-.24.07-.86-.5-1.9-.81-2.88-.81s-1.66.22-2.09.62c-.36.33-.55.75-.55,1.28,0,.86.67,1.34,1.7,1.71,1.16.43,2.36.58,3.44,1.22.81.46,1.52,1.25,1.52,2.52,0,1.13-.46,2-1.23,2.6-.72.57-1.75.86-2.93.86-1.82,0-3.1-.58-3.92-1.11Z"/>
        <path class="cls-1" d="M399.7,66.28c.12-.09.22-.05.26.03l.34.63c.05.09,0,.15-.09.22-.62.41-1.51.63-2.42.63-1.3,0-2.38-.41-3.1-1.16-.69-.69-1.06-1.68-1.06-2.86,0-1.03.33-1.9.87-2.55.79-.96,1.99-1.47,3.31-1.47.91,0,1.75.26,2.36.69.09.07.14.14.09.22l-.36.65c-.05.1-.14.12-.26.05-.6-.38-1.18-.53-1.83-.53-.89,0-1.7.34-2.23.98-.43.5-.69,1.16-.69,1.97,0,.89.29,1.63.79,2.16s1.23.82,2.14.82c.65,0,1.27-.12,1.87-.48Z"/>
        <path class="cls-1" d="M401.84,56.21c0-.41.34-.74.75-.74s.75.33.75.74-.34.75-.75.75-.75-.33-.75-.75ZM402.15,59.89h.93c.09,0,.15.09.15.17v7.42c0,.09-.07.15-.15.15h-.93c-.09,0-.17-.07-.17-.15v-7.42c0-.09.09-.17.17-.17Z"/>
        <path class="cls-1" d="M411.64,66.09c.14-.09.22-.03.26.03l.33.63c.05.09.02.15-.07.22-.63.43-1.75.82-2.95.82-1.28,0-2.35-.45-3.05-1.25-.65-.72-1.01-1.71-1.01-2.88,0-1.1.38-2.09,1.03-2.79s1.59-1.13,2.83-1.13,2.21.5,2.81,1.23c.57.72.87,1.73.81,2.95,0,.12-.09.19-.21.19h-5.96c.05.65.27,1.25.67,1.71.5.6,1.25.94,2.19.94s1.7-.31,2.33-.69ZM411.42,63.21c-.03-.7-.26-1.28-.63-1.71-.39-.43-1.01-.74-1.78-.74-.86,0-1.51.31-1.94.81-.36.43-.58,1.03-.62,1.64h4.97Z"/>
        <path class="cls-1" d="M415.8,61.21c.53-1.01,1.56-1.46,2.71-1.46.93,0,1.7.22,2.24.7.6.53.93,1.39.93,2.59v4.44c0,.09-.09.15-.17.15h-.91c-.09,0-.17-.07-.17-.15v-4.16c0-.86-.17-1.54-.63-1.97-.34-.33-.82-.5-1.52-.5-.89,0-1.59.39-2.02,1.18-.33.62-.45,1.35-.45,2.04v3.41c0,.09-.07.15-.15.15h-.94c-.09,0-.17-.07-.17-.15v-7.42c0-.09.09-.17.17-.17h.87c.09,0,.17.09.17.17v1.15h.05Z"/>
        <path class="cls-1" d="M429.58,66.28c.12-.09.22-.05.26.03l.34.63c.05.09,0,.15-.09.22-.62.41-1.51.63-2.42.63-1.3,0-2.38-.41-3.1-1.16-.69-.69-1.06-1.68-1.06-2.86,0-1.03.33-1.9.87-2.55.79-.96,1.99-1.47,3.31-1.47.91,0,1.75.26,2.36.69.09.07.14.14.09.22l-.36.65c-.05.1-.14.12-.26.05-.6-.38-1.18-.53-1.83-.53-.89,0-1.7.34-2.23.98-.43.5-.69,1.16-.69,1.97,0,.89.29,1.63.79,2.16s1.23.82,2.14.82c.65,0,1.27-.12,1.87-.48Z"/>
        <path class="cls-1" d="M437.66,66.09c.14-.09.22-.03.26.03l.33.63c.05.09.02.15-.07.22-.63.43-1.75.82-2.95.82-1.28,0-2.35-.45-3.05-1.25-.65-.72-1.01-1.71-1.01-2.88,0-1.1.38-2.09,1.03-2.79s1.59-1.13,2.83-1.13,2.21.5,2.81,1.23c.57.72.87,1.73.81,2.95,0,.12-.09.19-.21.19h-5.96c.05.65.27,1.25.67,1.71.5.6,1.25.94,2.19.94s1.7-.31,2.33-.69ZM437.44,63.21c-.03-.7-.26-1.28-.63-1.71-.39-.43-1.01-.74-1.78-.74-.86,0-1.51.31-1.94.81-.36.43-.58,1.03-.62,1.64h4.97Z"/>
      </g>
      <g>
        <g>
          <g>
            <path class="cls-1" d="M5.83,38.16c1.59,0,2.54-1.01,2.65-2.8,0-.32,0-.75-.06-1.21v-.12h-1.33l.12.26c.06.2.12.63.12,1.01-.06.89-.75,1.47-1.7,1.38-1.01-.06-1.59-.69-1.59-1.59,0-.32.06-.63.32-.95l.2-.26-1.27-.2-.06.12c-.2.37-.26.84-.32,1.21-.12,1.85.89,3.06,2.74,3.12.03.03.09.03.17.03Z"/>
            <path class="cls-1" d="M6.06,31.96c.37.12.69.12,1.01.12,1.21,0,2.11-.69,2.48-1.9.2-.75.12-1.38-.2-2.02-.37-.63-1.01-1.07-1.85-1.33-.32-.12-.69-.12-.95-.12-1.21,0-2.11.69-2.48,1.9-.46,1.56.29,2.83,1.99,3.35ZM5.19,28.96c.2-.69.75-.84,1.21-.84.2,0,.43.06.69.12.58.2,1.01.43,1.21.84.12.26.2.52.06.84-.2.69-.75.84-1.21.84-.26,0-.43-.06-.69-.12-.78-.26-1.53-.84-1.27-1.67Z"/>
            <path class="cls-1" d="M11.54,24.84l-1.85-1.01.06-.12c.2-.32.32-.32.58-.26l1.85.26.69-1.33-2.42-.26h-.43c0-.52-.26-1.01-.75-1.27-.26-.12-.52-.2-.75-.2-.89,0-1.33.89-1.79,1.7l-.66,1.21,4.82,2.6.66-1.33ZM8.68,23.13l-.06.12-.89-.43.06-.12c.2-.37.43-.75.84-.58.12.06.2.12.26.26.03.23-.09.55-.2.75Z"/>
            <polygon class="cls-1" points="14.51 20.02 12.03 18 15.58 18.81 16.53 17.6 12.35 14.11 11.45 15.14 13.99 17.22 10.44 16.41 9.43 17.6 13.67 21.09 14.51 20.02"/>
            <polygon class="cls-1" points="20.65 14.11 19.9 13.24 18.37 14.42 17.68 13.62 19.07 12.46 18.32 11.57 16.93 12.72 16.41 12.03 17.94 10.82 17.16 9.87 14.57 11.97 18 16.21 20.65 14.11"/>
            <polygon class="cls-1" points="25.18 11.39 24.61 10.38 22.87 11.34 20.8 7.59 19.59 8.28 22.24 13.04 25.18 11.39"/>
            <polygon class="cls-1" points="29.8 9.61 29.36 8.54 27.58 9.17 26.13 5.16 24.78 5.62 26.62 10.76 29.8 9.61"/>
            <path class="cls-1" d="M35.34,8.71h.32c.75-.06,1.33-.32,1.64-.69s.43-.95.37-1.59l-.26-3.43-1.38.06.26,3.12c.06,1.07-.37,1.27-.75,1.33h-.12c-.32,0-.75-.12-.89-1.21l-.26-3.12-1.38.12.26,3.43c.2,1.3.92,1.99,2.19,1.99Z"/>
            <polygon class="cls-1" points="41.6 5.48 42.75 8.86 44.34 9.12 45.03 3.63 43.7 3.46 43.27 6.69 42.11 3.26 40.59 3.09 39.84 8.48 41.16 8.65 41.6 5.48"/>
            <polygon class="cls-1" points="49.15 4.85 47.83 4.41 46.18 9.61 47.51 10.07 49.15 4.85"/>
            <polygon class="cls-1" points="56.02 7.9 54.81 7.27 52.15 9.98 52.7 6.26 51.37 5.54 50.57 11.34 51.95 11.97 56.02 7.9"/>
            <polygon class="cls-1" points="57.4 15.78 58.09 14.83 56.59 13.62 57.23 12.78 58.61 13.87 59.36 12.92 57.98 11.83 58.5 11.13 60 12.35 60.78 11.39 58.09 9.35 54.75 13.67 57.4 15.78"/>
            <path class="cls-1" d="M59.68,18.06l1.59-1.38.06.12c.2.26.2.32.06.63l-.89,1.64,1.01,1.15,1.07-2.16c.06-.06.12-.26.12-.43.43.2,1.01.12,1.47-.26,1.21-1.01.26-2.11-.43-2.91l-.89-1.01-4.12,3.61.98,1.01ZM62.94,15.2l.06.12c.2.26.37.52.37.69,0,.12-.06.2-.2.26-.06.12-.2.12-.26.12-.26,0-.52-.26-.63-.43l-.06-.12.72-.63Z"/>
            <path class="cls-1" d="M64.76,22.44c-.26.2-.63-.12-.75-.37-.2-.32-.26-.63-.26-1.07v-.32l-1.27.58.06.26c.12.43.2.69.43,1.15.43.75,1.01,1.15,1.64,1.15.32,0,.58-.06.89-.26.95-.58.84-1.47.69-2.16-.06-.43-.12-.75.06-.89.12-.06.2-.06.26-.06.26,0,.43.26.52.32.2.26.26.58.32.89l.06.26,1.15-.52v-.12c-.06-.37-.26-.75-.52-1.21-.58-1.01-1.59-1.33-2.48-.75-.95.58-.84,1.47-.69,2.11.09.55.14.87-.12,1.01Z"/>
            <rect class="cls-1" x="64.96" y="25.04" width="5.45" height="1.38" transform="translate(-4.7 27.47) rotate(-22.19)"/>
            <polygon class="cls-1" points="70.47 29.22 66.34 30.23 66.66 31.56 70.87 30.55 71.19 31.96 72.32 31.7 71.31 27.52 70.15 27.84 70.47 29.22"/>
            <polygon class="cls-1" points="67.24 35.57 67.3 36.98 69.46 36.84 72.89 38.62 72.81 37.1 70.79 36.14 72.69 34.93 72.57 33.29 69.4 35.51 67.24 35.57"/>
            <polygon class="cls-1" points="6.89 48.37 8.05 48.06 7.59 46.41 8.42 46.15 8.91 47.94 10.07 47.57 9.17 44.51 3.92 46.04 4.3 47.36 6.46 46.73 6.89 48.37"/>
            <path class="cls-1" d="M11.77,52.96c.2-.63.12-1.33-.2-2.02-.52-1.01-1.27-1.53-2.28-1.53-.43,0-.95.12-1.47.37-.84.37-1.33.95-1.59,1.64-.2.63-.12,1.33.2,2.02.52.95,1.27,1.53,2.28,1.53.43,0,.95-.12,1.47-.37.84-.43,1.41-.95,1.59-1.64ZM9.63,53.28c-.32.2-.69.26-1.01.26-.52,0-.84-.2-1.01-.63-.12-.32-.2-.58-.06-.84.12-.37.52-.75,1.01-1.01.32-.12.63-.26.95-.26.52,0,.84.2,1.01.63.12.32.2.58.06.84-.14.37-.46.75-.95,1.01Z"/>
            <path class="cls-1" d="M15.58,57.2l-2.48,1.96c-.63.52-1.15.58-1.53.12-.12-.2-.2-.37-.2-.58.06-.26.26-.58.63-.89l2.48-1.96-.89-1.07-2.74,2.16c-.58.43-.89.95-.89,1.53,0,.52.2,1.01.63,1.59.52.69,1.07,1.01,1.7,1.01.43,0,.89-.2,1.33-.58l2.74-2.22-.78-1.07Z"/>
            <polygon class="cls-1" points="20.22 61.64 18.2 64.18 18.95 60.63 17.74 59.62 14.25 63.86 15.35 64.76 17.36 62.22 16.61 65.77 17.8 66.78 21.29 62.54 20.22 61.64"/>
            <path class="cls-1" d="M24.29,64.24l-1.38-.69-2.48,4.87,1.38.69c.69.32,1.27.52,1.85.52.95,0,1.7-.52,2.22-1.53.81-1.64.26-2.91-1.59-3.87ZM24.55,67.5c-.26.58-.75.89-1.33.89-.26,0-.43-.06-.69-.2l-.32-.2,1.38-2.8.32.2c.37.2.63.52.75.84.12.43.06.81-.12,1.27Z"/>
            <polygon class="cls-1" points="27.32 71.48 30.58 72.37 30.89 71.22 28.99 70.73 29.22 69.72 31.01 70.15 31.33 69 29.54 68.57 29.74 67.67 31.7 68.19 31.96 67.04 28.73 66.23 27.32 71.48"/>
            <path class="cls-1" d="M35.39,67.5l-1.59-.06-.32,5.45,1.59.06h.37c1.85,0,2.8-.89,2.91-2.6.06-.84-.12-1.53-.58-2.02-.49-.46-1.27-.78-2.39-.84ZM35.34,71.8h-.37l.2-3.12h.37c.75.06,1.47.63,1.38,1.64-.09,1.04-.84,1.47-1.59,1.47Z"/>
            <path class="cls-1" d="M43.18,67.04l-.95,5.77,1.47-.32.2-1.21,1.79-.37.69,1.07,1.53-.32-3.23-4.87-1.5.26ZM44.08,70.09l.2-1.47.75,1.21-.95.26Z"/>
            <polygon class="cls-1" points="48.4 69.89 48.89 71.22 50.16 70.73 49.73 69.46 48.4 69.89"/>
            <path class="cls-1" d="M51.06,64.38l-1.38.75,2.6,4.82,1.38-.75c1.85-1.01,2.28-2.28,1.47-3.87-.84-1.64-2.22-1.96-4.07-.95ZM53.28,68.05l-.32.2-1.47-2.74.32-.2c.2-.12.43-.2.69-.2.58,0,1.01.32,1.33.84.55.92.09,1.73-.55,2.11Z"/>
            <polygon class="cls-1" points="56.19 66.08 56.97 67.24 58.09 66.4 57.34 65.28 56.19 66.08"/>
            <polygon class="cls-1" points="58.35 59.05 58.09 61.21 59.31 61.38 59.45 60.52 62.05 63.11 63.06 62.16 59.19 58.21 58.35 59.05"/>
            <path class="cls-1" d="M65.8,56.19c-.43-.32-.95-.37-1.53-.2,0-.52-.26-1.01-.63-1.27-.69-.52-1.59-.2-2.28.69-.63.89-.58,1.79.2,2.34.37.26.89.32,1.33.2-.06.58.12,1.01.58,1.33.32.26.63.32.95.32.58,0,1.07-.32,1.59-.95.37-.52.58-1.01.52-1.53-.09-.29-.35-.61-.72-.92ZM63.17,56.57c-.2.12-.37.26-.58.26-.06,0-.2,0-.26-.06-.26-.2-.12-.52,0-.69.06-.12.2-.2.32-.2.06,0,.2.06.32.12.2.14.29.4.2.58ZM65.08,58.09c-.2.26-.52.32-.75.12-.2-.2-.32-.37-.26-.75.37-.26.69-.32.95-.12.12.06.2.2.2.32s-.06.32-.14.43Z"/>
            <path class="cls-1" d="M68.25,50.85c-.95-.43-1.85-.2-2.28.69-.12.26-.2.52-.12.75-.32-.26-.63-.69-.37-1.27.12-.26.32-.43.52-.63l.2-.12-1.01-.69-.12.12c-.26.26-.52.58-.69.95-.26.58-.32,1.07-.12,1.59.32.89,1.21,1.53,1.9,1.85.63.32,1.15.43,1.59.43.69,0,1.21-.32,1.59-1.01.43-1.12.06-2.08-1.1-2.65ZM68.25,52.9c-.06.2-.26.26-.43.26-.12,0-.32-.06-.43-.12-.26-.12-.43-.32-.52-.43-.06-.12,0-.2,0-.32.06-.2.2-.26.43-.26.12,0,.32.06.52.12.26.12.37.26.43.43.09.12,0,.23,0,.32Z"/>
            <path class="cls-1" d="M70.24,45.29c-1.07-.32-1.96.2-2.28,1.21,0,.12-.06.2-.06.26l-.63-.2.58-1.9-1.07-.32-.95,3.17,3.06.95v-.26c0-.32.06-.58.12-.89.06-.26.37-.89.95-.75.63.2.52.89.43,1.07-.12.37-.32.63-.52.89l-.2.2,1.27.43.06-.12c.2-.37.37-.84.52-1.15.2-.63.2-1.21-.06-1.7-.26-.4-.72-.72-1.21-.89Z"/>
          </g>
          <path class="cls-1" d="M30.09,32.02l-.26-.14c-1.56-.84-4.15-2.37-4.15-3.52v-6.03h9v6.09c0,1.01-2.37,2.45-4.33,3.46l-.26.14ZM26.77,26.22v2.13c.12.37,1.62,1.47,3.32,2.39,1.76-.92,3.29-1.99,3.49-2.39v-2.13h-6.81ZM26.77,25.12h6.81v-1.7h-6.81v1.7Z"/>
          <path class="cls-1" d="M37.87,75.75C16.99,75.75,0,58.76,0,37.87S16.99,0,37.87,0s37.87,16.99,37.87,37.87-16.99,37.87-37.87,37.87ZM37.87,1.1C17.6,1.1,1.1,17.6,1.1,37.87s16.5,36.78,36.78,36.78,36.78-16.5,36.78-36.78S58.15,1.1,37.87,1.1Z"/>
          <path class="cls-1" d="M37.87,65.54c-15.26,0-27.66-12.4-27.66-27.66s12.4-27.66,27.66-27.66,27.66,12.4,27.66,27.66c0,15.26-12.4,27.66-27.66,27.66ZM37.87,11.31c-14.65,0-26.57,11.91-26.57,26.57s11.91,26.57,26.57,26.57,26.57-11.91,26.57-26.57-11.91-26.57-26.57-26.57Z"/>
          <path class="cls-1" d="M45.6,32.02l-.26-.14c-1.59-.84-4.24-2.37-4.24-3.52v-6.03h9v6.09c0,.81-1.44,1.96-4.24,3.46l-.26.14ZM42.2,28.33c.14.4,1.67,1.5,3.4,2.42,1.7-.92,3.2-1.99,3.4-2.39v-.75l-3.4-2.22-3.4,2.22v.72ZM45.6,24.06l3.4,2.22v-2.86h-6.78v2.86l3.37-2.22Z"/>
          <rect class="cls-1" x="32.11" y="40.93" width="3.81" height="1.27" transform="translate(-1.86 1.59) rotate(-2.61)"/>
          <rect class="cls-1" x="32.11" y="44.42" width="3.81" height="1.27" transform="translate(-2.01 1.59) rotate(-2.6)"/>
          <rect class="cls-1" x="32.11" y="47.91" width="3.81" height="1.27" transform="translate(-2.16 1.59) rotate(-2.6)"/>
          <rect class="cls-1" x="27.78" y="41.6" width="2.11" height="1.76"/>
          <rect class="cls-1" x="27.78" y="46.61" width="2.02" height="1.76"/>
          <path class="cls-1" d="M37.35,52.12s-.75-.55-1.21-.49c-2.28.37-5.97.29-6.14.29h-.55v-13.67l.61.06s2.91.32,5.51-.14c.89-.23,1.82,0,2.28.17.46-.14,1.47-.4,2.39-.17,2.6.46,5.48.14,5.51.14l.61-.06v13.67h-.55c-.17,0-3.95.09-6.23-.29-.49-.09-1.1.37-1.27.49l-.46.32-.49-.32ZM36.37,50.51c.63-.03,1.1.29,1.44.52.4-.26,1.21-.63,1.99-.49,1.67.29,4.33.29,5.48.29v-11.37c-1.04.09-3.17.17-5.22-.2h-.06c-.84-.23-1.9.14-1.9.14l-.26.06h-.06s-1.04-.43-1.87-.2h-.06c-2.05.37-4.18.29-5.22.2v11.37c1.12,0,3.78,0,5.48-.29q.14-.03.26-.03Z"/>
          <rect class="cls-1" x="41.19" y="43.16" width="1.27" height="3.81" transform="translate(-5.09 84.81) rotate(-87.4)"/>
          <rect class="cls-1" x="41.19" y="46.65" width="1.27" height="3.81" transform="translate(-8.58 88.14) rotate(-87.4)"/>
          <rect class="cls-1" x="45.98" y="41.6" width="2.02" height="1.76"/>
          <rect class="cls-1" x="45.98" y="46.61" width="2.02" height="1.76"/>
          <rect class="cls-1" x="41.19" y="39.73" width="1.27" height="3.81" transform="translate(-1.36 81.85) rotate(-87.83)"/>
        </g>
        <path class="cls-1" d="M37.82,63.11l-.23-.09c-.17-.09-4.3-1.93-8.51-5.19-5.65-4.38-8.71-9.17-8.8-13.9.2-10.1.03-23.54.03-23.68v-.55h35.19v.55c0,.14-.03,13.76-.03,23.68,0,4.73-3.03,9.52-8.77,13.9-4.27,3.26-8.48,5.13-8.65,5.19l-.23.09ZM38.36,34.53v27.09c3.29-1.62,15.95-8.45,15.95-17.74v-9.37l-15.95.03h0ZM21.49,34.53c0,3.14-.03,6.4-.09,9.37.12,5.48,4.62,10.12,8.37,13.01,3.06,2.37,6.12,4.01,7.5,4.7v-27.09s-15.78,0-15.78,0ZM21.49,33.43h32.85c0-5.8.03-10.99.03-12.66H21.4c.03,1.67.09,6.84.09,12.66Z"/>
      </g>
    </g>
  </g>
</svg>